<svg xmlns="http://www.w3.org/2000/svg" viewBox="0 0 400 120" width="400" height="120">
  <!-- Shield icon -->
  <g transform="translate(20, 10)">
    <path d="M40 5 L75 20 L75 55 C75 75 55 95 40 100 C25 95 5 75 5 55 L5 20 Z"
          fill="none" stroke="#BE9A64" stroke-width="1.5"/>
    <path d="M40 15 L67 27 L67 53 C67 69 52 85 40 90 C28 85 13 69 13 53 L13 27 Z"
          fill="none" stroke="#BE9A64" stroke-width="0.75"/>
    <path d="M44.54 64.27L34.64 64.27L34.96 63.62L44.28 63.62L44.54 64.27ZM52.42 74.17L52.42 74.17Q52.56 74.17 52.56 74.38Q52.56 74.6 52.42 74.6L52.42 74.6Q51.41 74.6 50.35 74.53Q49.29 74.46 48.32 74.46L48.32 74.46Q47.2 74.46 46.39 74.53Q45.58 74.6 44.61 74.6L44.61 74.6Q44.46 74.6 44.46 74.38Q44.46 74.17 44.61 74.17L44.61 74.17Q46.62 74.17 47.15 73.63Q47.67 73.09 46.98 71.58L46.98 71.58L38.85 54.08L39.53 53.47L32.58 70.17Q31.68 72.37 32.44 73.27Q33.2 74.17 35.64 74.17L35.64 74.17Q35.82 74.17 35.82 74.38Q35.82 74.6 35.64 74.6L35.64 74.6Q34.56 74.6 33.66 74.53Q32.76 74.46 31.4 74.46L31.4 74.46Q30.14 74.46 29.36 74.53Q28.59 74.6 27.51 74.6L27.51 74.6Q27.36 74.6 27.36 74.38Q27.36 74.17 27.51 74.17L27.51 74.17Q28.48 74.17 29.2 73.81Q29.92 73.45 30.55 72.51Q31.18 71.58 31.9 69.85L31.9 69.85L39.42 51.74Q39.5 51.63 39.66 51.63Q39.82 51.63 39.86 51.74L39.86 51.74L48.21 69.67Q49.04 71.47 49.68 72.46Q50.33 73.45 50.98 73.81Q51.63 74.17 52.42 74.17Z" fill="#BE9A64"/>
  </g>
  <!-- Company name -->
  <path d="M125.2 42.82L116.4 42.82L116.69 42.24L124.98 42.24L125.2 42.82ZM132.21 51.62L132.21 51.62Q132.34 51.62 132.34 51.81Q132.34 52 132.21 52L132.21 52Q131.31 52 130.37 51.94Q129.42 51.87 128.56 51.87L128.56 51.87Q127.57 51.87 126.85 51.94Q126.13 52 125.26 52L125.26 52Q125.14 52 125.14 51.81Q125.14 51.62 125.26 51.62L125.26 51.62Q127.06 51.62 127.52 51.14Q127.98 50.66 127.38 49.31L127.38 49.31L120.14 33.76L120.75 33.22L114.58 48.06Q113.78 50.02 114.45 50.82Q115.12 51.62 117.3 51.62L117.3 51.62Q117.46 51.62 117.46 51.81Q117.46 52 117.3 52L117.3 52Q116.34 52 115.54 51.94Q114.74 51.87 113.52 51.87L113.52 51.87Q112.4 51.87 111.71 51.94Q111.02 52 110.06 52L110.06 52Q109.94 52 109.94 51.81Q109.94 51.62 110.06 51.62L110.06 51.62Q110.93 51.62 111.57 51.3Q112.21 50.98 112.77 50.14Q113.33 49.31 113.97 47.78L113.97 47.78L120.66 31.68Q120.72 31.58 120.86 31.58Q121.01 31.58 121.04 31.68L121.04 31.68L128.46 47.62Q129.2 49.22 129.78 50.1Q130.35 50.98 130.93 51.3Q131.5 51.62 132.21 51.62ZM156.64 44.54L156.64 35.36Q156.64 33.82 155.98 33.1Q155.33 32.38 153.92 32.38L153.92 32.38Q153.82 32.38 153.82 32.19Q153.82 32 153.92 32L153.92 32Q154.62 32 155.38 32.05Q156.13 32.1 157.02 32.1L157.02 32.1Q157.76 32.1 158.51 32.05Q159.26 32 159.87 32L159.87 32Q159.94 32 159.94 32.19Q159.94 32.38 159.87 32.38L159.87 32.38Q158.59 32.38 157.97 33.1Q157.34 33.82 157.34 35.36L157.34 35.36L157.34 44.51Q157.34 47.04 156.42 48.8Q155.49 50.56 153.81 51.49Q152.13 52.42 149.89 52.42L149.89 52.42Q147.52 52.42 145.76 51.47Q144 50.53 143.04 48.82Q142.08 47.1 142.08 44.8L142.08 44.8L142.08 34.59Q142.08 33.66 141.87 33.2Q141.66 32.74 141.06 32.56Q140.45 32.38 139.23 32.38L139.23 32.38Q139.17 32.38 139.17 32.19Q139.17 32 139.23 32L139.23 32Q140 32 140.93 32.05Q141.86 32.1 142.91 32.1L142.91 32.1Q144 32.1 144.94 32.05Q145.89 32 146.59 32L146.59 32Q146.69 32 146.69 32.19Q146.69 32.38 146.59 32.38L146.59 32.38Q145.38 32.38 144.77 32.58Q144.16 32.77 143.97 33.25Q143.78 33.73 143.78 34.66L143.78 34.66L143.78 43.68Q143.78 47.46 145.54 49.47Q147.3 51.49 150.46 51.49L150.46 51.49Q153.41 51.49 155.02 49.63Q156.64 47.78 156.64 44.54L156.64 44.54ZM184.56 52L184.56 52Q184.02 52 182.77 50.75Q181.52 49.5 179.76 47.18Q178 44.86 175.82 41.7L175.82 41.7L177.36 41.22Q180.11 45.09 182.03 47.38Q183.95 49.66 185.42 50.64Q186.9 51.62 188.27 51.62L188.27 51.62Q188.37 51.62 188.37 51.81Q188.37 52 188.27 52L188.27 52Q186.83 52 185.92 52Q185.01 52 184.56 52ZM176.21 31.9L176.21 31.9Q178.67 31.9 179.97 33.09Q181.26 34.27 181.26 36.16L181.26 36.16Q181.26 37.86 180.27 39.23Q179.28 40.61 177.63 41.41Q175.98 42.21 174 42.21L174 42.21Q173.71 42.21 173.33 42.18Q172.94 42.14 172.62 42.11L172.62 42.11L172.62 49.41Q172.62 50.34 172.82 50.82Q173.01 51.3 173.63 51.46Q174.26 51.62 175.47 51.62L175.47 51.62Q175.57 51.62 175.57 51.81Q175.57 52 175.47 52L175.47 52Q174.7 52 173.79 51.97Q172.88 51.94 171.76 51.94L171.76 51.94Q170.74 51.94 169.78 51.97Q168.82 52 168.05 52L168.05 52Q167.98 52 167.98 51.81Q167.98 51.62 168.05 51.62L168.05 51.62Q169.26 51.62 169.89 51.46Q170.51 51.3 170.74 50.82Q170.96 50.34 170.96 49.41L170.96 49.41L170.96 34.59Q170.96 33.66 170.75 33.2Q170.54 32.74 169.94 32.56Q169.33 32.38 168.11 32.38L168.11 32.38Q168.02 32.38 168.02 32.19Q168.02 32 168.11 32L168.11 32Q168.85 32 169.79 32.05Q170.74 32.1 171.76 32.1L171.76 32.1Q172.75 32.1 174.06 32Q175.38 31.9 176.21 31.9ZM179.47 37.02L179.47 37.02Q179.47 35.3 178.91 34.27Q178.35 33.25 177.31 32.78Q176.27 32.32 174.8 32.32L174.8 32.32Q173.65 32.32 173.14 32.74Q172.62 33.15 172.62 34.66L172.62 34.66L172.62 41.38Q173.07 41.41 173.6 41.44Q174.13 41.47 174.54 41.47L174.54 41.47Q177.3 41.47 178.38 40.32Q179.47 39.17 179.47 37.02ZM208.61 52L208.61 52L195.39 52Q195.33 52 195.33 51.81Q195.33 51.62 195.39 51.62L195.39 51.62Q196.61 51.62 197.22 51.46Q197.82 51.3 198.03 50.82Q198.24 50.34 198.24 49.41L198.24 49.41L198.24 34.59Q198.24 33.66 198.03 33.2Q197.82 32.74 197.22 32.56Q196.61 32.38 195.39 32.38L195.39 32.38Q195.33 32.38 195.33 32.19Q195.33 32 195.39 32L195.39 32L208.06 32Q208.35 32 208.35 32.29L208.35 32.29L208.42 36.16Q208.42 36.26 208.24 36.26Q208.06 36.26 208.06 36.16L208.06 36.16Q208.06 34.5 207.2 33.55Q206.34 32.61 204.93 32.61L204.93 32.61L202.72 32.61Q201.54 32.61 200.94 32.77Q200.35 32.93 200.14 33.39Q199.94 33.86 199.94 34.78L199.94 34.78L199.94 49.28Q199.94 50.18 200.14 50.62Q200.35 51.07 200.94 51.23Q201.54 51.39 202.72 51.39L202.72 51.39L205.66 51.39Q206.94 51.39 207.87 50.27Q208.8 49.15 209.02 47.33L209.02 47.33Q209.02 47.23 209.22 47.25Q209.41 47.26 209.41 47.36L209.41 47.36Q209.28 48.19 209.2 49.36Q209.12 50.53 209.12 51.52L209.12 51.52Q209.12 52 208.61 52ZM206.82 44.48L206.82 44.48Q206.82 43.04 206.21 42.46Q205.6 41.89 204.06 41.89L204.06 41.89L199.14 41.89L199.14 41.28L204.16 41.28Q205.63 41.28 206.21 40.78Q206.78 40.29 206.78 39.07L206.78 39.07Q206.78 39.01 206.98 39.01Q207.17 39.01 207.17 39.07L207.17 39.07Q207.17 40 207.15 40.51Q207.14 41.02 207.14 41.6L207.14 41.6Q207.14 42.3 207.17 42.99Q207.2 43.68 207.2 44.48L207.2 44.48Q207.2 44.54 207.01 44.54Q206.82 44.54 206.82 44.48ZM222.74 34.62L222.74 34.62L222.74 49.28Q222.74 50.18 222.94 50.62Q223.15 51.07 223.74 51.23Q224.34 51.39 225.49 51.39L225.49 51.39L229.58 51.39Q231.28 51.39 232.18 50.27Q233.07 49.15 233.33 47.33L233.33 47.33Q233.33 47.23 233.5 47.25Q233.68 47.26 233.68 47.36L233.68 47.36Q233.58 48.19 233.49 49.36Q233.39 50.53 233.39 51.52L233.39 51.52Q233.39 52 232.91 52L232.91 52L218.19 52Q218.13 52 218.13 51.81Q218.13 51.62 218.19 51.62L218.19 51.62Q219.41 51.62 220.02 51.46Q220.62 51.3 220.83 50.82Q221.04 50.34 221.04 49.41L221.04 49.41L221.04 34.59Q221.04 33.66 220.83 33.2Q220.62 32.74 220.02 32.56Q219.41 32.38 218.19 32.38L218.19 32.38Q218.13 32.38 218.13 32.19Q218.13 32 218.19 32L218.19 32Q218.96 32 219.9 32.05Q220.85 32.1 221.87 32.1L221.87 32.1Q222.96 32.1 223.9 32.05Q224.85 32 225.58 32L225.58 32Q225.65 32 225.65 32.19Q225.65 32.38 225.58 32.38L225.58 32.38Q224.37 32.38 223.76 32.56Q223.15 32.74 222.94 33.22Q222.74 33.7 222.74 34.62ZM246.14 34.66L246.14 49.41Q246.14 50.34 246.34 50.82Q246.53 51.3 247.15 51.46Q247.78 51.62 248.99 51.62L248.99 51.62Q249.06 51.62 249.06 51.81Q249.06 52 248.99 52L248.99 52Q248.22 52 247.3 51.97Q246.37 51.94 245.25 51.94L245.25 51.94Q244.19 51.94 243.25 51.97Q242.3 52 241.54 52L241.54 52Q241.44 52 241.44 51.81Q241.44 51.62 241.54 51.62L241.54 51.62Q242.75 51.62 243.38 51.46Q244 51.3 244.21 50.82Q244.42 50.34 244.42 49.41L244.42 49.41L244.42 34.59Q244.42 33.66 244.21 33.2Q244 32.74 243.38 32.56Q242.75 32.38 241.54 32.38L241.54 32.38Q241.44 32.38 241.44 32.19Q241.44 32 241.54 32L241.54 32Q242.3 32 243.25 32.05Q244.19 32.1 245.25 32.1L245.25 32.1Q246.37 32.1 247.31 32.05Q248.26 32 248.99 32L248.99 32Q249.06 32 249.06 32.19Q249.06 32.38 248.99 32.38L248.99 32.38Q247.78 32.38 247.17 32.58Q246.56 32.77 246.35 33.25Q246.14 33.73 246.14 34.66L246.14 34.66ZM274.86 44.54L274.86 35.36Q274.86 33.82 274.21 33.1Q273.55 32.38 272.14 32.38L272.14 32.38Q272.05 32.38 272.05 32.19Q272.05 32 272.14 32L272.14 32Q272.85 32 273.6 32.05Q274.35 32.1 275.25 32.1L275.25 32.1Q275.98 32.1 276.74 32.05Q277.49 32 278.1 32L278.1 32Q278.16 32 278.16 32.19Q278.16 32.38 278.1 32.38L278.1 32.38Q276.82 32.38 276.19 33.1Q275.57 33.82 275.57 35.36L275.57 35.36L275.57 44.51Q275.57 47.04 274.64 48.8Q273.71 50.56 272.03 51.49Q270.35 52.42 268.11 52.42L268.11 52.42Q265.74 52.42 263.98 51.47Q262.22 50.53 261.26 48.82Q260.3 47.1 260.3 44.8L260.3 44.8L260.3 34.59Q260.3 33.66 260.1 33.2Q259.89 32.74 259.28 32.56Q258.67 32.38 257.46 32.38L257.46 32.38Q257.39 32.38 257.39 32.19Q257.39 32 257.46 32L257.46 32Q258.22 32 259.15 32.05Q260.08 32.1 261.14 32.1L261.14 32.1Q262.22 32.1 263.17 32.05Q264.11 32 264.82 32L264.82 32Q264.91 32 264.91 32.19Q264.91 32.38 264.82 32.38L264.82 32.38Q263.6 32.38 262.99 32.58Q262.38 32.77 262.19 33.25Q262 33.73 262 34.66L262 34.66L262 43.68Q262 47.46 263.76 49.47Q265.52 51.49 268.69 51.49L268.69 51.49Q271.63 51.49 273.25 49.63Q274.86 47.78 274.86 44.54L274.86 44.54ZM289.28 35.87L289.28 35.87Q289.28 37.22 289.94 38.16Q290.59 39.1 291.63 39.81Q292.67 40.51 293.82 41.18L293.82 41.18Q295.01 41.86 296.1 42.61Q297.18 43.36 297.9 44.4Q298.62 45.44 298.62 46.98L298.62 46.98Q298.62 48.45 297.9 49.68Q297.18 50.91 295.74 51.65Q294.3 52.38 292.13 52.38L292.13 52.38Q291.42 52.38 290.74 52.29Q290.05 52.19 289.33 51.95Q288.61 51.71 287.78 51.3L287.78 51.3Q287.62 51.2 287.57 51.06Q287.52 50.91 287.49 50.69L287.49 50.69L287.01 46.53Q286.98 46.37 287.15 46.35Q287.33 46.34 287.36 46.46L287.36 46.46Q287.49 47.42 287.87 48.38Q288.26 49.34 288.91 50.14Q289.57 50.94 290.54 51.44Q291.52 51.94 292.83 51.94L292.83 51.94Q293.82 51.94 294.75 51.57Q295.68 51.2 296.27 50.37Q296.86 49.54 296.86 48.1L296.86 48.1Q296.86 46.53 296.18 45.49Q295.49 44.45 294.43 43.7Q293.38 42.94 292.19 42.27L292.19 42.27Q291.07 41.6 290.02 40.86Q288.96 40.13 288.3 39.12Q287.65 38.11 287.65 36.61L287.65 36.61Q287.65 34.94 288.48 33.84Q289.31 32.74 290.64 32.19Q291.97 31.65 293.41 31.65L293.41 31.65Q294.24 31.65 295.15 31.82Q296.06 32 297.06 32.42L297.06 32.42Q297.31 32.51 297.42 32.66Q297.54 32.8 297.54 32.96L297.54 32.96L297.82 36.35Q297.82 36.48 297.65 36.48Q297.47 36.48 297.44 36.35L297.44 36.35Q297.38 35.65 297.1 34.9Q296.83 34.14 296.3 33.5Q295.78 32.86 294.96 32.46Q294.14 32.06 292.99 32.06L292.99 32.06Q291.62 32.06 290.8 32.64Q289.98 33.22 289.63 34.08Q289.28 34.94 289.28 35.87Z" fill="#010110"/>
  <path d="M114.51 78.14L114.51 78.14Q113.34 78.14 112.45 77.6Q111.56 77.05 111.07 76.07Q110.59 75.1 110.59 73.8L110.59 73.8Q110.59 72.52 111.09 71.54Q111.58 70.56 112.49 70.01Q113.4 69.46 114.63 69.46L114.63 69.46Q116.02 69.46 116.96 70.13Q117.9 70.8 118.16 72L118.16 72L117.18 72Q117.01 71.18 116.34 70.7Q115.68 70.22 114.63 70.22L114.63 70.22Q113.67 70.22 112.96 70.66Q112.24 71.09 111.85 71.89Q111.45 72.68 111.45 73.8L111.45 73.8Q111.45 74.92 111.84 75.72Q112.23 76.52 112.92 76.96Q113.61 77.39 114.51 77.39L114.51 77.39Q115.93 77.39 116.64 76.55Q117.36 75.71 117.45 74.23L117.45 74.23L114.92 74.23L114.92 73.55L118.32 73.55L118.32 78L117.55 78L117.48 76.51L117.48 76.51Q117.16 77.03 116.76 77.4Q116.36 77.77 115.81 77.96Q115.27 78.14 114.51 78.14ZM140.14 78L139.3 78L139.3 69.6L141.89 69.6Q142.86 69.6 143.48 69.92Q144.1 70.25 144.38 70.79Q144.67 71.34 144.67 72.04L144.67 72.04Q144.67 72.71 144.37 73.27Q144.07 73.82 143.45 74.15Q142.82 74.48 141.83 74.48L141.83 74.48L140.14 74.48L140.14 78ZM144.77 78L143.76 78L141.88 74.22L142.84 74.22L144.77 78ZM140.14 70.31L140.14 73.8L141.83 73.8Q142.85 73.8 143.33 73.31Q143.81 72.82 143.81 72.04L143.81 72.04Q143.81 71.23 143.34 70.77Q142.87 70.31 141.82 70.31L141.82 70.31L140.14 70.31ZM169.34 78.14L169.34 78.14Q168.14 78.14 167.22 77.6Q166.31 77.05 165.8 76.07Q165.29 75.1 165.29 73.8L165.29 73.8Q165.29 72.52 165.8 71.54Q166.31 70.56 167.22 70.01Q168.14 69.46 169.34 69.46L169.34 69.46Q170.57 69.46 171.48 70.01Q172.4 70.56 172.89 71.54Q173.39 72.52 173.39 73.8L173.39 73.8Q173.39 75.1 172.89 76.07Q172.4 77.05 171.48 77.6Q170.57 78.14 169.34 78.14ZM169.35 77.41L169.35 77.41Q170.3 77.41 171.02 76.98Q171.74 76.55 172.13 75.74Q172.53 74.93 172.53 73.8L172.53 73.8Q172.53 72.67 172.13 71.87Q171.74 71.06 171.02 70.63Q170.3 70.2 169.35 70.2L169.35 70.2Q168.4 70.2 167.68 70.63Q166.96 71.06 166.56 71.87Q166.16 72.67 166.16 73.8L166.16 73.8Q166.16 74.93 166.56 75.74Q166.96 76.55 167.68 76.98Q168.4 77.41 169.35 77.41ZM197.17 78.14L197.17 78.14Q196.32 78.14 195.63 77.81Q194.94 77.47 194.53 76.76Q194.12 76.04 194.12 74.94L194.12 74.94L194.12 69.6L194.96 69.6L194.96 74.95Q194.96 75.8 195.24 76.35Q195.52 76.9 196.03 77.15Q196.53 77.4 197.18 77.4L197.18 77.4Q197.84 77.4 198.33 77.15Q198.82 76.9 199.1 76.35Q199.38 75.8 199.38 74.95L199.38 74.95L199.38 69.6L200.22 69.6L200.22 74.94Q200.22 76.04 199.81 76.76Q199.4 77.47 198.71 77.81Q198.02 78.14 197.17 78.14ZM222.13 78L221.29 78L221.29 69.6L223.93 69.6Q224.9 69.6 225.54 69.92Q226.18 70.24 226.48 70.78Q226.78 71.33 226.78 72.02L226.78 72.02Q226.78 72.71 226.48 73.26Q226.18 73.81 225.55 74.14Q224.92 74.46 223.93 74.46L223.93 74.46L222.13 74.46L222.13 78ZM222.13 70.31L222.13 73.74L223.93 73.74Q225 73.74 225.46 73.28Q225.91 72.82 225.91 72.02L225.91 72.02Q225.91 71.21 225.46 70.76Q225 70.31 223.93 70.31L223.93 70.31L222.13 70.31Z" fill="#010110"/>
  <!-- Decorative line -->
  <line x1="110" y1="88" x2="320" y2="88" stroke="#BE9A64" stroke-width="0.5"/>
</svg>