<svg xmlns="http://www.w3.org/2000/svg" viewBox="0 0 64 100" width="64" height="100">
  <g transform="translate(10.0, 80)" fill="#5C3A4E">
    <path d="M298 344 309 353Q366 353 409.0 331.0Q452 309 475.5 271.0Q499 233 499 185Q499 131 474.0 88.0Q449 45 405.5 20.5Q362 -4 308 -4Q275 -4 235.0 -1.0Q195 2 160 2Q128 2 98.0 1.0Q68 0 44 0Q42 0 42.0 6.0Q42 12 44 12Q82 12 101.5 17.0Q121 22 128.0 37.0Q135 52 135 81V544Q135 573 128.5 587.5Q122 602 103.0 607.5Q84 613 46 613Q43 613 43.0 619.0Q43 625 46 625Q69 625 98.5 623.5Q128 622 160 622Q186 622 220.5 625.0Q255 628 277 628Q336 628 371.5 609.5Q407 591 423.0 561.0Q439 531 439 495Q439 438 398.5 399.0Q358 360 298 344ZM254 615Q230 615 215.0 611.5Q200 608 193.5 593.0Q187 578 187 542V346L157 354Q189 352 210.0 351.5Q231 351 234 351Q317 351 351.0 390.5Q385 430 385 488Q385 522 372.5 551.0Q360 580 331.5 597.5Q303 615 254 615ZM294 12Q370 12 405.5 51.5Q441 91 441 160Q441 235 395.0 283.0Q349 331 269 332Q241 333 214.0 332.0Q187 331 160 327L187 338V81Q187 56 195.0 40.5Q203 25 226.0 18.5Q249 12 294 12Z" transform="translate(0.0, 0) scale(0.080000, -0.080000)"/>
  </g>
</svg>