<svg xmlns="http://www.w3.org/2000/svg" viewBox="0 0 359 118" width="359" height="118">
  <g transform="translate(20.0, 72)" fill="#5C3A4E">
    <path d="M298 344 309 353Q366 353 409.0 331.0Q452 309 475.5 271.0Q499 233 499 185Q499 131 474.0 88.0Q449 45 405.5 20.5Q362 -4 308 -4Q275 -4 235.0 -1.0Q195 2 160 2Q128 2 98.0 1.0Q68 0 44 0Q42 0 42.0 6.0Q42 12 44 12Q82 12 101.5 17.0Q121 22 128.0 37.0Q135 52 135 81V544Q135 573 128.5 587.5Q122 602 103.0 607.5Q84 613 46 613Q43 613 43.0 619.0Q43 625 46 625Q69 625 98.5 623.5Q128 622 160 622Q186 622 220.5 625.0Q255 628 277 628Q336 628 371.5 609.5Q407 591 423.0 561.0Q439 531 439 495Q439 438 398.5 399.0Q358 360 298 344ZM254 615Q230 615 215.0 611.5Q200 608 193.5 593.0Q187 578 187 542V346L157 354Q189 352 210.0 351.5Q231 351 234 351Q317 351 351.0 390.5Q385 430 385 488Q385 522 372.5 551.0Q360 580 331.5 597.5Q303 615 254 615ZM294 12Q370 12 405.5 51.5Q441 91 441 160Q441 235 395.0 283.0Q349 331 269 332Q241 333 214.0 332.0Q187 331 160 327L187 338V81Q187 56 195.0 40.5Q203 25 226.0 18.5Q249 12 294 12Z" transform="translate(0.0, 0) scale(0.072000, -0.072000)"/><path d="M178 543V85Q178 57 184.5 43.0Q191 29 209.5 24.0Q228 19 264 19H392Q445 19 473.0 54.0Q501 89 509 146Q509 149 514.5 148.5Q520 148 520 145Q517 119 514.0 82.5Q511 46 511 15Q511 0 496 0H36Q34 0 34.0 6.0Q34 12 36 12Q74 12 93.0 17.0Q112 22 118.5 37.0Q125 52 125 81V544Q125 573 118.5 587.5Q112 602 93.0 607.5Q74 613 36 613Q34 613 34.0 619.0Q34 625 36 625Q60 625 89.5 623.5Q119 622 151 622Q185 622 214.5 623.5Q244 625 267 625Q269 625 269.0 619.0Q269 613 267 613Q229 613 210.0 607.5Q191 602 184.5 587.0Q178 572 178 543Z" transform="translate(39.5, 0) scale(0.072000, -0.072000)"/><path d="M366 -12Q294 -12 235.5 13.5Q177 39 135.5 84.0Q94 129 71.5 187.5Q49 246 49 312Q49 393 80.5 454.0Q112 515 164.0 555.5Q216 596 278.0 616.0Q340 636 401 636Q475 636 533.5 609.5Q592 583 633.0 538.0Q674 493 695.5 436.0Q717 379 717 319Q717 249 689.0 189.0Q661 129 612.5 84.0Q564 39 500.5 13.5Q437 -12 366 -12ZM402 8Q472 8 529.0 40.5Q586 73 619.5 136.5Q653 200 653 291Q653 386 616.5 458.5Q580 531 514.0 572.5Q448 614 359 614Q243 614 178.0 542.0Q113 470 113 346Q113 276 133.5 214.5Q154 153 192.5 106.5Q231 60 284.0 34.0Q337 8 402 8Z" transform="translate(77.7, 0) scale(0.072000, -0.072000)"/><path d="M138 504Q138 462 158.5 432.5Q179 403 211.5 381.0Q244 359 280 338Q317 317 351.0 293.5Q385 270 407.5 237.5Q430 205 430 157Q430 111 407.5 72.5Q385 34 340.0 11.0Q295 -12 227 -12Q205 -12 183.5 -9.0Q162 -6 139.5 1.5Q117 9 91 22Q86 25 84.5 29.5Q83 34 82 41L67 171Q66 176 71.5 176.5Q77 177 78 173Q82 143 94.0 113.0Q106 83 126.5 58.0Q147 33 177.5 17.5Q208 2 249 2Q280 2 309.0 13.5Q338 25 356.5 51.0Q375 77 375 122Q375 171 353.5 203.5Q332 236 299.0 259.5Q266 283 229 304Q194 325 161.0 348.0Q128 371 107.5 402.5Q87 434 87 481Q87 533 113.0 567.5Q139 602 180.5 619.0Q222 636 267 636Q293 636 321.5 630.5Q350 625 381 612Q389 609 392.5 604.5Q396 600 396 595L405 489Q405 485 399.5 485.0Q394 485 393 489Q391 511 382.5 534.5Q374 558 357.5 578.0Q341 598 315.5 610.5Q290 623 254 623Q211 623 185.5 605.0Q160 587 149.0 560.0Q138 533 138 504Z" transform="translate(132.8, 0) scale(0.072000, -0.072000)"/><path d="M578 542Q578 571 572.0 586.0Q566 601 547.0 607.0Q528 613 489 613Q486 613 486.0 619.0Q486 625 489 625Q512 625 541.5 623.5Q571 622 605 622Q637 622 667.0 623.5Q697 625 720 625Q723 625 723.0 619.0Q723 613 720 613Q682 613 662.5 607.5Q643 602 636.5 587.5Q630 573 630 544V81Q630 52 636.5 37.0Q643 22 662.5 17.0Q682 12 720 12Q723 12 723.0 6.0Q723 0 720 0Q697 0 667.0 1.0Q637 2 605 2Q571 2 541.5 1.0Q512 0 489 0Q486 0 486.0 6.0Q486 12 489 12Q528 12 547.0 17.0Q566 22 572.0 37.0Q578 52 578 81ZM150 316V335H600V316ZM126 81V544Q126 573 119.5 587.5Q113 602 94.0 607.5Q75 613 37 613Q35 613 35.0 619.0Q35 625 37 625Q61 625 90.5 623.5Q120 622 152 622Q187 622 216.0 623.5Q245 625 268 625Q270 625 270.0 619.0Q270 613 268 613Q230 613 211.0 607.0Q192 601 185.5 586.0Q179 571 179 542V81Q179 52 185.0 37.0Q191 22 210.5 17.0Q230 12 268 12Q270 12 270.0 6.0Q270 0 268 0Q244 0 215.5 1.0Q187 2 152 2Q120 2 90.0 1.0Q60 0 36 0Q34 0 34.0 6.0Q34 12 36 12Q74 12 93.5 17.0Q113 22 119.5 37.0Q126 52 126 81Z" transform="translate(167.8, 0) scale(0.072000, -0.072000)"/><path d="M126 81V544Q126 573 119.5 587.5Q113 602 94.0 607.5Q75 613 37 613Q35 613 35.0 619.0Q35 625 37 625Q61 625 90.5 623.5Q120 622 152 622Q187 622 216.0 623.5Q245 625 268 625Q270 625 270.0 619.0Q270 613 268 613Q230 613 211.0 607.0Q192 601 185.5 586.0Q179 571 179 542V81Q179 52 185.0 37.0Q191 22 210.5 17.0Q230 12 268 12Q270 12 270.0 6.0Q270 0 268 0Q244 0 215.5 1.0Q187 2 152 2Q120 2 90.0 1.0Q60 0 36 0Q34 0 34.0 6.0Q34 12 36 12Q74 12 93.5 17.0Q113 22 119.5 37.0Q126 52 126 81ZM373 145 209 349 251 379 395 198Q442 139 474.5 102.5Q507 66 529.0 47.0Q551 28 568.0 20.5Q585 13 600.5 12.5Q616 12 635 12Q638 12 638.0 6.0Q638 0 635 0Q590 0 563.0 0.0Q536 0 523 0Q516 0 511.5 -0.5Q507 -1 502 -1Q488 -1 480.0 4.0Q472 9 461.5 24.0Q451 39 431.0 68.0Q411 97 373 145ZM142 294 399 550Q437 588 432.5 600.5Q428 613 375 613Q373 613 373.0 619.0Q373 625 375 625Q399 625 423.5 623.5Q448 622 488 622Q525 622 546.5 623.5Q568 625 588 625Q591 625 591.0 619.0Q591 613 588 613Q554 613 509.0 599.0Q464 585 422 544L166 295Z" transform="translate(222.3, 0) scale(0.072000, -0.072000)"/><path d="M200 287 209 305H468L475 287ZM694 12Q698 12 698.0 6.0Q698 0 694 0Q666 0 636.5 2.0Q607 4 580 4Q549 4 526.5 2.0Q504 0 477 0Q473 0 473.0 6.0Q473 12 477 12Q533 12 547.5 27.0Q562 42 543 84L317 570L336 587L143 123Q118 62 139.0 37.0Q160 12 228 12Q233 12 233.0 6.0Q233 0 228 0Q198 0 173.0 2.0Q148 4 110 4Q75 4 53.5 2.0Q32 0 2 0Q-2 0 -2.0 6.0Q-2 12 2 12Q29 12 49.0 22.0Q69 32 86.5 58.0Q104 84 124 132L333 635Q335 638 339.5 638.0Q344 638 345 635L577 137Q600 87 618.0 59.5Q636 32 654.0 22.0Q672 12 694 12Z" transform="translate(269.1, 0) scale(0.072000, -0.072000)"/>
  </g>
  <line x1="154.7" y1="88" x2="204.7" y2="88" stroke="#C5A882" stroke-width="0.8"/>
  <g transform="translate(142.0, 108)" fill="#C5A882">
    <path d="M77 0V700H257Q379 700 458.5 657.5Q538 615 576.5 536.5Q615 458 615 348Q615 240 576.5 162.0Q538 84 458.5 42.0Q379 0 257 0ZM161 70H255Q356 70 416.0 103.5Q476 137 502.0 199.5Q528 262 528 348Q528 436 502.0 499.0Q476 562 416.0 596.0Q356 630 255 630H161Z" transform="translate(0.0, 0) scale(0.014000, -0.014000)"/><path d="M77 0V700H510V631H161V387H480V319H161V69H510V0Z" transform="translate(14.3, 0) scale(0.014000, -0.014000)"/><path d="M77 0V700H161V67H487V0Z" transform="translate(27.3, 0) scale(0.014000, -0.014000)"/><path d="M326 -12Q254 -12 195.5 17.0Q137 46 102.0 105.5Q67 165 67 258V700H151V257Q151 189 173.5 146.0Q196 103 236.0 83.0Q276 63 328 63Q381 63 420.0 83.0Q459 103 481.0 146.0Q503 189 503 257V700H587V258Q587 165 552.0 105.5Q517 46 458.0 17.0Q399 -12 326 -12Z" transform="translate(39.7, 0) scale(0.014000, -0.014000)"/><path d="M39 0 253 353 39 700H134L306 421L470 700H564L350 350L565 0H470L297 282L134 0Z" transform="translate(53.9, 0) scale(0.014000, -0.014000)"/><path d="M77 0V700H510V631H161V387H480V319H161V69H510V0Z" transform="translate(67.3, 0) scale(0.014000, -0.014000)"/>
  </g>
</svg>