<svg xmlns="http://www.w3.org/2000/svg" viewBox="0 0 400 100" width="400" height="100">
  <!-- Power switch icon -->
  <g transform="translate(20, 12)">
    <circle cx="38" cy="42" r="28" fill="none" stroke="#C46B2A" stroke-width="3" stroke-dasharray="140 36" stroke-dashoffset="-18"/>
    <line x1="38" y1="14" x2="38" y2="38" stroke="#C46B2A" stroke-width="3" stroke-linecap="round"/>
  </g>
  <!-- Brand name (Manrope SemiBold, outlined) -->
  <g fill="#0F2B4C">
    <!-- Р -->
    <path transform="translate(100,58) scale(0.019,-0.019)" d="M140 0V1440H722.0015869140625Q743.0015869140625 1440 774.0018615722656 1438.5Q805.0021362304688 1437 832.6688232421875 1432Q953.3359985351562 1413.333251953125 1033.8361206054688 1350.1664733886719Q1114.3362426757812 1286.9996948242188 1154.1695251464844 1191.1661987304688Q1194.0028076171875 1095.3327026367188 1194.0028076171875 978.665771484375Q1194.0028076171875 861.9988403320312 1153.836181640625 766.1653442382812Q1113.6695556640625 670.3318481445312 1033.16943359375 607.1650695800781Q952.6693115234375 543.998291015625 832.6688232421875 525.33154296875Q805.0021362304688 521.33154296875 773.6685180664062 519.33154296875Q742.3348999023438 517.33154296875 722.0015869140625 517.33154296875H349.337158203125V0ZM349.337158203125 714.6683349609375H714.0013427734375Q733.6680908203125 714.6683349609375 758.1681213378906 716.6683349609375Q782.6681518554688 718.6683349609375 804.6680908203125 724.001708984375Q869.0008544921875 739.3350219726562 907.8336486816406 779.6680603027344Q946.6664428710938 820.0010986328125 963.9994201660156 872.8338623046875Q981.3323974609375 925.6666259765625 981.3323974609375 978.665771484375Q981.3323974609375 1031.6649169921875 963.9994201660156 1084.4976806640625Q946.6664428710938 1137.3304443359375 907.8336486816406 1177.6634826660156Q869.0008544921875 1217.9965209960938 804.6680908203125 1233.329833984375Q782.6681518554688 1238.9965209960938 758.1681213378906 1240.8298645019531Q733.6680908203125 1242.6632080078125 714.0013427734375 1242.6632080078125H349.337158203125Z"/>
    <!-- у -->
    <path transform="translate(124.83,58) scale(0.019,-0.019)" d="M285.99951171875 -480 494.6661376953125 89.33349609375 497.99951171875 -78.66650390625 26.666259765625 1080H245.3367919921875L597.3345947265625 185.3380126953125H533.3345947265625L869.333251953125 1080H1080.6702880859375L485.3360595703125 -480Z"/>
    <!-- б -->
    <path transform="translate(146.67,58) scale(0.019,-0.019)" d="M584.0006713867188 -31.3333740234375Q430.3338623046875 -30 322.3338623046875 36.166748046875Q214.3338623046875 102.33349609375 153.83380126953125 226.66653442382812Q93.333740234375 350.99957275390625 83.33343505859375 526.6651611328125Q77.99993896484375 611.6651611328125 83.83319091796875 715.1653442382812Q89.66644287109375 818.66552734375 106.16653442382812 915.6658935546875Q122.6666259765625 1012.666259765625 149.33367919921875 1078.0001220703125Q178.3338623046875 1149.6666259765625 228.00057983398438 1210.499755859375Q277.66729736328125 1271.3328857421875 338.00042724609375 1311.99951171875Q402.33392333984375 1356.3330078125 480.1672058105469 1380.8330688476562Q558.00048828125 1405.3331298828125 643.3338012695312 1418.9998168945312Q728.6671142578125 1432.66650390625 816.5006713867188 1443.1665344238281Q904.334228515625 1453.6665649414062 987.3348999023438 1470L1007.3351440429688 1283.330078125Q951.6683959960938 1270.3299560546875 877.5018005371094 1262.3300170898438Q803.335205078125 1254.330078125 723.8353576660156 1244.3302307128906Q644.3355102539062 1234.3303833007812 572.0023193359375 1215.9971923828125Q499.66912841796875 1197.6640014648438 447.33587646484375 1164.6640625Q372.33624267578125 1118.6642456054688 332.50311279296875 1030.8316040039062Q292.66998291015625 942.9989624023438 284.67010498046875 840.00048828125Q346.67010498046875 933.6669311523438 442.6697082519531 975.1664733886719Q538.6693115234375 1016.666015625 642.0016479492188 1016.666015625Q786.3348999023438 1016.666015625 890.50146484375 948.8326416015625Q994.6680297851562 880.999267578125 1050.66796875 763.8327026367188Q1106.6679077148438 646.6661376953125 1106.6679077148438 499.333251953125Q1106.6679077148438 339.33331298828125 1041.167724609375 219.49996948242188Q975.6675415039062 99.6666259765625 858.000732421875 33.49993896484375Q740.3339233398438 -32.666748046875 584.0006713867188 -31.3333740234375ZM595.3340454101562 166.00341796875Q738.6657104492188 166.00341796875 812.3314819335938 255.00238037109375Q885.9972534179688 344.0013427734375 885.9972534179688 491.9996337890625Q885.9972534179688 643.66455078125 809.9981994628906 730.8302001953125Q733.9991455078125 817.995849609375 594.6674194335938 817.995849609375Q454.0023193359375 817.995849609375 379.6698913574219 730.8302001953125Q305.33746337890625 643.66455078125 305.33746337890625 491.9996337890625Q305.33746337890625 338.3345947265625 380.33660888671875 252.16900634765625Q455.33575439453125 166.00341796875 595.3340454101562 166.00341796875Z"/>
  </g>
  <g fill="#C46B2A">
    <!-- И -->
    <path transform="translate(170.22,58) scale(0.019,-0.019)" d="M1273.3360595703125 0H1061.3321533203125V1070.659912109375L352.00390625 0H140V1440H352.00390625V370.0067138671875L1061.3321533203125 1440H1273.3360595703125Z"/>
    <!-- И -->
    <path transform="translate(198.07,58) scale(0.019,-0.019)" d="M1273.3360595703125 0H1061.3321533203125V1070.659912109375L352.00390625 0H140V1440H352.00390625V370.0067138671875L1061.3321533203125 1440H1273.3360595703125Z"/>
  </g>
  <g fill="#0F2B4C">
    <!-- л -->
    <path transform="translate(225.92,58) scale(0.019,-0.019)" d="M40 0V177.3363037109375Q99.6666259765625 166.3363037109375 131.33331298828125 180.836181640625Q163 195.3360595703125 178.66671752929688 234.00265502929688Q194.33343505859375 272.66925048828125 205.33349609375 334.66943359375Q221.66680908203125 426.33575439453125 234.33346557617188 542.8356628417969Q247.0001220703125 659.3355712890625 256.8334045410156 795.0018005371094Q266.66668701171875 930.6680297851562 275.333251953125 1080H1050.6690673828125V0H841.3319091796875V882.6632080078125H462.669677734375Q457.00311279296875 803.6648559570312 449.3365173339844 715.1658630371094Q441.669921875 626.6668701171875 433.0033264160156 539.6674499511719Q424.33673095703125 452.66802978515625 414.3367919921875 376.83502197265625Q404.33685302734375 301.00201416015625 393.3369140625 246.6689453125Q372.6700439453125 138.66778564453125 334.336181640625 75.50051879882812Q296.0023193359375 12.333251953125 226.0015869140625 -6.333526611328125Q156.0008544921875 -25.00030517578125 40 0Z"/>
    <!-- ь -->
    <path transform="translate(249.54,58) scale(0.019,-0.019)" d="M139.333251953125 0 138.6666259765625 1080H348.67041015625V704.6685791015625H562.0013427734375Q608.0012817382812 704.6685791015625 660.6683959960938 702.6685791015625Q713.3355102539062 700.6685791015625 750.6689453125 693.335205078125Q838.0027465820312 675.3350219726562 901.6694946289062 633.3347778320312Q965.3362426757812 591.3345336914062 1000.0028381347656 521.6676940917969Q1034.66943359375 452.0008544921875 1034.66943359375 351.334228515625Q1034.66943359375 210.000732421875 961.502685546875 126.33383178710938Q888.3359375 42.66693115234375 763.3349609375 14Q723.3350219726562 5 668.8346252441406 2.5Q614.334228515625 0 568.6676025390625 0ZM348.67041015625 168.0025634765625H580.668701171875Q606.3348999023438 168.0025634765625 638.3342895507812 170.0025634765625Q670.3336791992188 172.0025634765625 697.3333740234375 179.3358154296875Q744.9996948242188 193.00238037109375 782.8326721191406 236.16891479492188Q820.6656494140625 279.33544921875 820.6656494140625 351.334228515625Q820.6656494140625 425.33319091796875 783.1659240722656 468.9996643066406Q745.6661987304688 512.6661376953125 688.6669921875 525.9993896484375Q662.333984375 532.666015625 634.0010986328125 534.666015625Q605.668212890625 536.666015625 580.668701171875 536.666015625H348.67041015625Z"/>
    <!-- н -->
    <path transform="translate(271.73,58) scale(0.019,-0.019)" d="M138.6666259765625 0V1080H348.0037841796875V639.3350830078125H874.6654052734375V1080H1084.0025634765625V0H874.6654052734375V441.998291015625H348.0037841796875V0Z"/>
    <!-- и -->
    <path transform="translate(295.99,58) scale(0.019,-0.019)" d="M1050.003173828125 1080V0H848.666259765625V750.6611328125L308.66943359375 0H138.6666259765625V1080H340.0035400390625V344.0059814453125L881.333740234375 1080Z"/>
    <!-- к -->
    <path transform="translate(319.6,58) scale(0.019,-0.019)" d="M138.6666259765625 0 140 1080H352.00390625V560L776.0003662109375 1080H1042.004638671875L594.0081787109375 540L1088.00341796875 0H803.9991455078125L352.00390625 520V0Z"/>
  </g>
  <g fill="#C4A87C">
    <!-- В -->
    <path transform="translate(100,78) scale(0.0055,-0.0055)" d="M140 0V1440H695.9993896484375Q816.6650390625 1440 906.9982299804688 1389.8336791992188Q997.3314208984375 1339.6673583984375 1047.3316040039062 1255.3342895507812Q1097.331787109375 1171.001220703125 1097.331787109375 1069.3343505859375Q1097.331787109375 953.0011596679688 1035.1648864746094 862.6675109863281Q972.9979858398438 772.3338623046875 869.3310546875 737.3336181640625L866.664306640625 786.000244140625Q1006.997802734375 745.9998779296875 1087.1648559570312 645.9997863769531Q1167.3319091796875 545.9996948242188 1167.3319091796875 403.9990234375Q1167.3319091796875 278.9991455078125 1114.1650695800781 188.66604614257812Q1060.9982299804688 98.33294677734375 964.9982604980469 49.166473388671875Q868.998291015625 0 741.9989013671875 0ZM287.99609375 141.329833984375H705.9986572265625Q793.6663208007812 141.329833984375 863.6671447753906 172.49673461914062Q933.66796875 203.66363525390625 974.16845703125 261.8307800292969Q1014.6689453125 319.9979248046875 1014.6689453125 401.9986572265625Q1014.6689453125 481.66619873046875 978.0018005371094 546.0002746582031Q941.3346557617188 610.3343505859375 877.5006713867188 648.50146484375Q813.6666870117188 686.6685791015625 732.6661376953125 686.6685791015625H287.99609375ZM287.99609375 825.9984130859375H694.6661376953125Q764.0001831054688 825.9984130859375 821.0008239746094 857.3322143554688Q878.00146484375 888.666015625 911.6685180664062 943.8333435058594Q945.3355712890625 999.0006713867188 945.3355712890625 1071.3345947265625Q945.3355712890625 1173.335693359375 874.6679992675781 1237.0029296875Q804.0004272460938 1300.670166015625 694.6661376953125 1300.670166015625H287.99609375Z"/>
    <!-- К -->
    <path transform="translate(109.74,78) scale(0.0055,-0.0055)" d="M140 0V1440H286.662841796875V759.99951171875L943.99951171875 1440H1131.9951171875L460.65966796875 744.6671142578125L1187.3289794921875 0H995.3336181640625L286.662841796875 720.001953125V0Z"/>
    <!-- Л -->
    <path transform="translate(119.27,78) scale(0.0055,-0.0055)" d="M40 0V131.3304443359375Q95.3336181640625 125.6636962890625 131.00039672851562 135.330322265625Q166.66717529296875 144.9969482421875 189.50051879882812 178.83041381835938Q212.3338623046875 212.66387939453125 229.00051879882812 280.1643371582031Q245.66717529296875 347.664794921875 262.667236328125 457.3323974609375Q282.00042724609375 574.9988403320312 295.5003356933594 692.1648559570312Q309.000244140625 809.3308715820312 319.33355712890625 929.663818359375Q329.6668701171875 1049.9967651367188 337.000244140625 1176.8306274414062Q344.3336181640625 1303.6644897460938 350.0003662109375 1440H1258.664794921875V0H1112.001953125V1299.3367919921875H491.9970703125Q485.330322265625 1196.0020141601562 478.4969787597656 1088.00146484375Q471.66363525390625 980.0009155273438 462.3303527832031 867.0007934570312Q452.9970703125 754.0006713867188 439.663818359375 634.6672668457031Q426.33056640625 515.3338623046875 405.997314453125 388Q390.330810546875 291.6669921875 368.6643981933594 209.83367919921875Q346.99798583984375 128.0003662109375 308.4983215332031 71.83358764648438Q269.9986572265625 15.66680908203125 205.66574096679688 -4.999969482421875Q141.33282470703125 -25.666748046875 40 0Z"/>
    <!-- Ю -->
    <path transform="translate(129.97,78) scale(0.0055,-0.0055)" d="M140 0V1440H286.662841796875V793.3314208984375H678.66748046875V646.6685791015625H286.662841796875V0ZM1197.3321533203125 -30Q1053.6654663085938 -30 945.3323059082031 29.000244140625Q836.9991455078125 88.00048828125 764.9993896484375 191.50067138671875Q692.9996337890625 295.0008544921875 656.4998168945312 431.0007629394531Q620 567.0006713867188 620 720Q620 873.9993286132812 656.4998168945312 1009.1658935546875Q692.9996337890625 1144.3324584960938 764.9993896484375 1247.8326416015625Q836.9991455078125 1351.3328247070312 945.3323059082031 1409.9997253417969Q1053.6654663085938 1468.6666259765625 1197.3321533203125 1468.6666259765625Q1340.9988403320312 1468.6666259765625 1449.3320007324219 1409.9997253417969Q1557.6651611328125 1351.3328247070312 1629.6649169921875 1247.8326416015625Q1701.6646728515625 1144.3324584960938 1738.1644897460938 1009.1658935546875Q1774.664306640625 873.9993286132812 1774.664306640625 720Q1774.664306640625 561.6671752929688 1738.1644897460938 425.33392333984375Q1701.6646728515625 289.00067138671875 1629.6649169921875 186.50051879882812Q1557.6651611328125 84.0003662109375 1449.3320007324219 27.00018310546875Q1340.9988403320312 -30 1197.3321533203125 -30ZM1197.3321533203125 111.329833984375Q1302.6661376953125 111.329833984375 1381.3333129882812 159.16354370117188Q1460.00048828125 206.99725341796875 1512.3341979980469 291.16448974609375Q1564.6679077148438 375.33172607421875 1591.3347778320312 485.6656494140625Q1618.0016479492188 595.9995727539062 1618.6683349609375 720Q1620.001708984375 844.0004272460938 1593.6681823730469 954.0010070800781Q1567.3346557617188 1064.0015869140625 1514.6676025390625 1147.8354797363281Q1462.0005493164062 1231.6693725585938 1382.3333435058594 1279.5030822753906Q1302.6661376953125 1327.3367919921875 1197.3321533203125 1327.3367919921875Q1091.9981689453125 1327.3367919921875 1013.3309936523438 1279.5030822753906Q934.663818359375 1231.6693725585938 882.3301086425781 1147.8354797363281Q829.9963989257812 1064.0015869140625 803.6628723144531 954.0010070800781Q777.329345703125 844.0004272460938 775.9959716796875 720Q775.3292846679688 595.9995727539062 801.3294677734375 485.6656494140625Q827.3296508789062 375.33172607421875 879.9967041015625 291.16448974609375Q932.6637573242188 206.99725341796875 1012.3309631347656 159.16354370117188Q1091.9981689453125 111.329833984375 1197.3321533203125 111.329833984375Z"/>
    <!-- Ч -->
    <path transform="translate(143.06,78) scale(0.0055,-0.0055)" d="M1006.00146484375 0V676.00146484375L1046.668212890625 612.6680908203125Q978.33447265625 563.6680908203125 878.1678466796875 533.16796875Q778.001220703125 502.6678466796875 652.000732421875 502.6678466796875Q464.66717529296875 502.6678466796875 352.33367919921875 571.8344421386719Q240.00018310546875 641.0010375976562 190.00009155273438 762.5008850097656Q140 884.000732421875 140 1040.6671142578125V1440H287.99609375V1091.99951171875Q287.99609375 991.6651000976562 306.99652099609375 909.6646728515625Q325.9969482421875 827.6642456054688 369.83087158203125 768.6642150878906Q413.664794921875 709.6641845703125 486.665283203125 678.164306640625Q559.665771484375 646.6644287109375 666.6658935546875 646.6644287109375Q799.6665649414062 646.6644287109375 896.00048828125 687.1644897460938Q992.3344116210938 727.66455078125 1037.3348388671875 774.6646728515625L1006.00146484375 656.664794921875V1440H1153.3309326171875V0Z"/>
    <!-- И -->
    <path transform="translate(153.17,78) scale(0.0055,-0.0055)" d="M1228.6639404296875 0H1080.6678466796875V1181.340087890625L287.99609375 0H140V1440H287.99609375V259.9932861328125L1080.6678466796875 1440H1228.6639404296875Z"/>
    <!-- И -->
    <path transform="translate(168.9,78) scale(0.0055,-0.0055)" d="M1228.6639404296875 0H1080.6678466796875V1181.340087890625L287.99609375 0H140V1440H287.99609375V259.9932861328125L1080.6678466796875 1440H1228.6639404296875Z"/>
    <!-- И -->
    <path transform="translate(179.43,78) scale(0.0055,-0.0055)" d="M1228.6639404296875 0H1080.6678466796875V1181.340087890625L287.99609375 0H140V1440H287.99609375V259.9932861328125L1080.6678466796875 1440H1228.6639404296875Z"/>
    <!-- . -->
    <path transform="translate(189.96,78) scale(0.0055,-0.0055)" d="M167.99951171875 0V170.66357421875H338.6630859375V0Z"/>
    <!-- В -->
    <path transform="translate(200.95,78) scale(0.0055,-0.0055)" d="M140 0V1440H695.9993896484375Q816.6650390625 1440 906.9982299804688 1389.8336791992188Q997.3314208984375 1339.6673583984375 1047.3316040039062 1255.3342895507812Q1097.331787109375 1171.001220703125 1097.331787109375 1069.3343505859375Q1097.331787109375 953.0011596679688 1035.1648864746094 862.6675109863281Q972.9979858398438 772.3338623046875 869.3310546875 737.3336181640625L866.664306640625 786.000244140625Q1006.997802734375 745.9998779296875 1087.1648559570312 645.9997863769531Q1167.3319091796875 545.9996948242188 1167.3319091796875 403.9990234375Q1167.3319091796875 278.9991455078125 1114.1650695800781 188.66604614257812Q1060.9982299804688 98.33294677734375 964.9982604980469 49.166473388671875Q868.998291015625 0 741.9989013671875 0ZM287.99609375 141.329833984375H705.9986572265625Q793.6663208007812 141.329833984375 863.6671447753906 172.49673461914062Q933.66796875 203.66363525390625 974.16845703125 261.8307800292969Q1014.6689453125 319.9979248046875 1014.6689453125 401.9986572265625Q1014.6689453125 481.66619873046875 978.0018005371094 546.0002746582031Q941.3346557617188 610.3343505859375 877.5006713867188 648.50146484375Q813.6666870117188 686.6685791015625 732.6661376953125 686.6685791015625H287.99609375ZM287.99609375 825.9984130859375H694.6661376953125Q764.0001831054688 825.9984130859375 821.0008239746094 857.3322143554688Q878.00146484375 888.666015625 911.6685180664062 943.8333435058594Q945.3355712890625 999.0006713867188 945.3355712890625 1071.3345947265625Q945.3355712890625 1173.335693359375 874.6679992675781 1237.0029296875Q804.0004272460938 1300.670166015625 694.6661376953125 1300.670166015625H287.99609375Z"/>
    <!-- Ы -->
    <path transform="translate(210.69,78) scale(0.0055,-0.0055)" d="M139.3333740234375 0V1440H285.9962158203125V893.33154296875H695.331787109375Q715.9984741210938 893.33154296875 742.6648559570312 891.83154296875Q769.3312377929688 890.33154296875 796.66455078125 885.33154296875Q908.6640625 867.998291015625 987.1639404296875 806.6650695800781Q1065.663818359375 745.3318481445312 1106.4971923828125 652.1653442382812Q1147.33056640625 558.9988403320312 1147.33056640625 446.665771484375Q1147.33056640625 334.33270263671875 1106.6638488769531 241.16619873046875Q1065.9971313476562 147.99969482421875 987.4972534179688 86.66647338867188Q908.9973754882812 25.333251953125 796.66455078125 8Q769.3312377929688 4 742.8315124511719 2.0Q716.331787109375 0 695.331787109375 0ZM285.9962158203125 140.6632080078125H691.33203125Q709.665283203125 140.6632080078125 733.6652526855469 142.6632080078125Q757.6652221679688 144.6632080078125 780.665283203125 149.329833984375Q854.33251953125 164.99652099609375 901.9997253417969 210.16348266601562Q949.6669311523438 255.3304443359375 972.8339538574219 317.4976806640625Q996.0009765625 379.6649169921875 996.0009765625 446.665771484375Q996.0009765625 513.6666259765625 972.8339538574219 575.8338623046875Q949.6669311523438 638.0010986328125 901.9997253417969 683.1680603027344Q854.33251953125 728.3350219726562 780.665283203125 744.001708984375Q757.6652221679688 749.3350219726562 733.6652526855469 751.0016784667969Q709.665283203125 752.6683349609375 691.33203125 752.6683349609375H285.9962158203125ZM1288.663818359375 0V1440H1435.32666015625V0.0Z"/>
    <!-- К -->
    <path transform="translate(222.35,78) scale(0.0055,-0.0055)" d="M140 0V1440H286.662841796875V759.99951171875L943.99951171875 1440H1131.9951171875L460.65966796875 744.6671142578125L1187.3289794921875 0H995.3336181640625L286.662841796875 720.001953125V0Z"/>
    <!-- Л -->
    <path transform="translate(231.88,78) scale(0.0055,-0.0055)" d="M40 0V131.3304443359375Q95.3336181640625 125.6636962890625 131.00039672851562 135.330322265625Q166.66717529296875 144.9969482421875 189.50051879882812 178.83041381835938Q212.3338623046875 212.66387939453125 229.00051879882812 280.1643371582031Q245.66717529296875 347.664794921875 262.667236328125 457.3323974609375Q282.00042724609375 574.9988403320312 295.5003356933594 692.1648559570312Q309.000244140625 809.3308715820312 319.33355712890625 929.663818359375Q329.6668701171875 1049.9967651367188 337.000244140625 1176.8306274414062Q344.3336181640625 1303.6644897460938 350.0003662109375 1440H1258.664794921875V0H1112.001953125V1299.3367919921875H491.9970703125Q485.330322265625 1196.0020141601562 478.4969787597656 1088.00146484375Q471.66363525390625 980.0009155273438 462.3303527832031 867.0007934570312Q452.9970703125 754.0006713867188 439.663818359375 634.6672668457031Q426.33056640625 515.3338623046875 405.997314453125 388Q390.330810546875 291.6669921875 368.6643981933594 209.83367919921875Q346.99798583984375 128.0003662109375 308.4983215332031 71.83358764648438Q269.9986572265625 15.66680908203125 205.66574096679688 -4.999969482421875Q141.33282470703125 -25.666748046875 40 0Z"/>
    <!-- Ю -->
    <path transform="translate(242.58,78) scale(0.0055,-0.0055)" d="M140 0V1440H286.662841796875V793.3314208984375H678.66748046875V646.6685791015625H286.662841796875V0ZM1197.3321533203125 -30Q1053.6654663085938 -30 945.3323059082031 29.000244140625Q836.9991455078125 88.00048828125 764.9993896484375 191.50067138671875Q692.9996337890625 295.0008544921875 656.4998168945312 431.0007629394531Q620 567.0006713867188 620 720Q620 873.9993286132812 656.4998168945312 1009.1658935546875Q692.9996337890625 1144.3324584960938 764.9993896484375 1247.8326416015625Q836.9991455078125 1351.3328247070312 945.3323059082031 1409.9997253417969Q1053.6654663085938 1468.6666259765625 1197.3321533203125 1468.6666259765625Q1340.9988403320312 1468.6666259765625 1449.3320007324219 1409.9997253417969Q1557.6651611328125 1351.3328247070312 1629.6649169921875 1247.8326416015625Q1701.6646728515625 1144.3324584960938 1738.1644897460938 1009.1658935546875Q1774.664306640625 873.9993286132812 1774.664306640625 720Q1774.664306640625 561.6671752929688 1738.1644897460938 425.33392333984375Q1701.6646728515625 289.00067138671875 1629.6649169921875 186.50051879882812Q1557.6651611328125 84.0003662109375 1449.3320007324219 27.00018310546875Q1340.9988403320312 -30 1197.3321533203125 -30ZM1197.3321533203125 111.329833984375Q1302.6661376953125 111.329833984375 1381.3333129882812 159.16354370117188Q1460.00048828125 206.99725341796875 1512.3341979980469 291.16448974609375Q1564.6679077148438 375.33172607421875 1591.3347778320312 485.6656494140625Q1618.0016479492188 595.9995727539062 1618.6683349609375 720Q1620.001708984375 844.0004272460938 1593.6681823730469 954.0010070800781Q1567.3346557617188 1064.0015869140625 1514.6676025390625 1147.8354797363281Q1462.0005493164062 1231.6693725585938 1382.3333435058594 1279.5030822753906Q1302.6661376953125 1327.3367919921875 1197.3321533203125 1327.3367919921875Q1091.9981689453125 1327.3367919921875 1013.3309936523438 1279.5030822753906Q934.663818359375 1231.6693725585938 882.3301086425781 1147.8354797363281Q829.9963989257812 1064.0015869140625 803.6628723144531 954.0010070800781Q777.329345703125 844.0004272460938 775.9959716796875 720Q775.3292846679688 595.9995727539062 801.3294677734375 485.6656494140625Q827.3296508789062 375.33172607421875 879.9967041015625 291.16448974609375Q932.6637573242188 206.99725341796875 1012.3309631347656 159.16354370117188Q1091.9981689453125 111.329833984375 1197.3321533203125 111.329833984375Z"/>
    <!-- Ч -->
    <path transform="translate(255.67,78) scale(0.0055,-0.0055)" d="M1006.00146484375 0V676.00146484375L1046.668212890625 612.6680908203125Q978.33447265625 563.6680908203125 878.1678466796875 533.16796875Q778.001220703125 502.6678466796875 652.000732421875 502.6678466796875Q464.66717529296875 502.6678466796875 352.33367919921875 571.8344421386719Q240.00018310546875 641.0010375976562 190.00009155273438 762.5008850097656Q140 884.000732421875 140 1040.6671142578125V1440H287.99609375V1091.99951171875Q287.99609375 991.6651000976562 306.99652099609375 909.6646728515625Q325.9969482421875 827.6642456054688 369.83087158203125 768.6642150878906Q413.664794921875 709.6641845703125 486.665283203125 678.164306640625Q559.665771484375 646.6644287109375 666.6658935546875 646.6644287109375Q799.6665649414062 646.6644287109375 896.00048828125 687.1644897460938Q992.3344116210938 727.66455078125 1037.3348388671875 774.6646728515625L1006.00146484375 656.664794921875V1440H1153.3309326171875V0Z"/>
    <!-- И -->
    <path transform="translate(265.78,78) scale(0.0055,-0.0055)" d="M1228.6639404296875 0H1080.6678466796875V1181.340087890625L287.99609375 0H140V1440H287.99609375V259.9932861328125L1080.6678466796875 1440H1228.6639404296875Z"/>
    <!-- Р -->
    <path transform="translate(281.51,78) scale(0.0055,-0.0055)" d="M140 0V1440H695.9984130859375Q716.9984130859375 1440 743.4981384277344 1438.5Q769.9978637695312 1437 797.3311767578125 1432Q909.6640014648438 1414.666748046875 988.1638793945312 1353.3335266113281Q1066.6637573242188 1292.0003051757812 1107.3304748535156 1198.8338012695312Q1147.9971923828125 1105.6672973632812 1147.9971923828125 993.334228515625Q1147.9971923828125 881.0011596679688 1107.163818359375 787.8346557617188Q1066.3304443359375 694.6681518554688 987.83056640625 633.3349304199219Q909.3306884765625 572.001708984375 797.3311767578125 554.66845703125Q769.9978637695312 550.66845703125 743.3314819335938 548.66845703125Q716.6651000976562 546.66845703125 695.9984130859375 546.66845703125H286.662841796875V0ZM286.662841796875 687.3316650390625H691.9986572265625Q710.3319091796875 687.3316650390625 734.3318786621094 689.3316650390625Q758.3318481445312 691.3316650390625 781.3319091796875 695.998291015625Q854.9991455078125 711.6649780273438 902.6663513183594 756.8319396972656Q950.3335571289062 801.9989013671875 973.5005798339844 864.1661376953125Q996.6676025390625 926.3333740234375 996.6676025390625 993.334228515625Q996.6676025390625 1060.3350830078125 973.5005798339844 1122.5023193359375Q950.3335571289062 1184.6695556640625 902.6663513183594 1229.8365173339844Q854.9991455078125 1275.0034790039062 781.3319091796875 1290.670166015625Q758.3318481445312 1296.0034790039062 734.3318786621094 1297.6701354980469Q710.3319091796875 1299.3367919921875 691.9986572265625 1299.3367919921875H286.662841796875Z"/>
    <!-- У -->
    <path transform="translate(291.15,78) scale(0.0055,-0.0055)" d="M382.6688232421875 0 545.3343505859375 341.3314208984375 33.333740234375 1440H195.9959716796875L621.9990234375 499.3275146484375L1056.001953125 1440H1212.66455078125L543.33154296875 0Z"/>
    <!-- Т -->
    <path transform="translate(301.01,78) scale(0.0055,-0.0055)" d="M523.3348388671875 0V1299.3367919921875H20V1440H1173.33251953125V1299.3367919921875H669.9976806640625V0Z"/>
    <!-- И -->
    <path transform="translate(310.57,78) scale(0.0055,-0.0055)" d="M1228.6639404296875 0H1080.6678466796875V1181.340087890625L287.99609375 0H140V1440H287.99609375V259.9932861328125L1080.6678466796875 1440H1228.6639404296875Z"/>
    <!-- Н -->
    <path transform="translate(321.1,78) scale(0.0055,-0.0055)" d="M140 0V1440H286.662841796875V790.6649169921875H1082.66748046875V1440H1229.330322265625V0H1082.66748046875V650.001708984375H286.662841796875V0Z"/>
    <!-- У -->
    <path transform="translate(331.63,78) scale(0.0055,-0.0055)" d="M382.6688232421875 0 545.3343505859375 341.3314208984375 33.333740234375 1440H195.9959716796875L621.9990234375 499.3275146484375L1056.001953125 1440H1212.66455078125L543.33154296875 0Z"/>
    <!-- . -->
    <path transform="translate(341.48,78) scale(0.0055,-0.0055)" d="M167.99951171875 0V170.66357421875H338.6630859375V0Z"/>
  </g>
</svg>